<?xml version="1.0" encoding="utf-8"?>
<!-- Generator: Adobe Illustrator 24.1.0, SVG Export Plug-In . SVG Version: 6.00 Build 0)  -->
<svg version="1.1" id="Layer_1" xmlns="http://www.w3.org/2000/svg" xmlns:xlink="http://www.w3.org/1999/xlink" x="0px" y="0px"
	 viewBox="0 0 512 512" style="enable-background:new 0 0 512 512;" xml:space="preserve">
<style type="text/css">
	.st0{fill:#FFFFFF;}
	.st1{fill:#93C01F;}
	.st2{fill:none;stroke:#FFFFFF;stroke-width:20.1537;stroke-miterlimit:10;}
</style>
<polygon class="st0" points="329.1,156 377.8,156 182.9,373.2 134.2,373.2 "/>
<circle class="st1" cx="159.7" cy="181.5" r="25.5"/>
<circle class="st1" cx="352.3" cy="347.7" r="25.5"/>
<path class="st2" d="M464.4,353.9V161.3c0-16.9-9-32.5-23.6-40.9L274,24.1c-14.6-8.4-32.6-8.4-47.3,0L59.9,120.4
	c-14.6,8.4-23.6,24-23.6,40.9v192.6c0,16.9,9,32.5,23.6,40.9l166.8,96.3c14.6,8.4,32.6,8.4,47.3,0l166.8-96.3
	C455.4,386.4,464.4,370.8,464.4,353.9z"/>
</svg>
